<svg width="38" height="35" viewBox="0 0 38 35" fill="none" xmlns="http://www.w3.org/2000/svg">
<g clip-path="url(#clip0_65_223)">
<path d="M28.3889 0H8.6401C3.8683 0 0 3.65634 0 8.16667V26.8333C0 31.3437 3.8683 35 8.6401 35H28.3889C33.1607 35 37.029 31.3437 37.029 26.8333V8.16667C37.029 3.65634 33.1607 0 28.3889 0Z" fill="url(#paint0_linear_65_223)"/>
<mask id="mask0_65_223" style="mask-type:luminance" maskUnits="userSpaceOnUse" x="0" y="0" width="38" height="35">
<path d="M28.3889 0H8.6401C3.8683 0 0 3.65634 0 8.16667V26.8333C0 31.3437 3.8683 35 8.6401 35H28.3889C33.1607 35 37.029 31.3437 37.029 26.8333V8.16667C37.029 3.65634 33.1607 0 28.3889 0Z" fill="white"/>
</mask>
<g mask="url(#mask0_65_223)">
<path fill-rule="evenodd" clip-rule="evenodd" d="M25.6814 20.0976H29.9413C30.4016 20.0976 30.8431 20.2705 31.1686 20.5781C31.4942 20.8858 31.677 21.3031 31.677 21.7382C31.677 22.1734 31.4942 22.5907 31.1686 22.8983C30.8431 23.206 30.4016 23.3789 29.9413 23.3789H27.6717L29.2276 25.9441C29.4567 26.3219 29.5181 26.7702 29.3982 27.1908C29.2783 27.6113 28.9869 27.9697 28.5879 28.1876C28.1889 28.4053 27.7149 28.4646 27.2697 28.3524C26.8246 28.2402 26.4447 27.9657 26.2134 27.5891L19.7056 16.9893C19.7043 16.9876 19.3211 16.3409 19.4442 14.8601C19.5075 14.0989 19.9756 13.1892 20.8488 12.1307L25.6814 20.0976ZM18.3932 8.18127L19.0566 7.09481C19.1706 6.90823 19.3223 6.74468 19.5032 6.61352C19.684 6.48236 19.8904 6.38615 20.1106 6.33038C20.3308 6.27462 20.5604 6.26039 20.7864 6.28851C21.0124 6.31663 21.2303 6.38655 21.4277 6.49427C21.6251 6.602 21.7981 6.74542 21.9369 6.91635C22.0757 7.08728 22.1775 7.28237 22.2365 7.49048C22.2955 7.69859 22.3105 7.91565 22.2808 8.12926C22.251 8.34287 22.177 8.54885 22.0631 8.73544L15.1232 20.0976H20.4319C20.6263 20.1548 22.1584 21.0776 22.1723 22.4164C22.1769 22.8515 22.0853 23.1724 21.8971 23.3789H6.72597C6.26562 23.3789 5.82413 23.206 5.49862 22.8983C5.17311 22.5907 4.99023 22.1734 4.99023 21.7382C4.99023 21.3031 5.17311 20.8858 5.49862 20.5781C5.82413 20.2705 6.26562 20.0976 6.72597 20.0976H11.1145L16.389 11.4625L14.6813 8.6669C14.5674 8.48031 14.4934 8.27433 14.4636 8.06072C14.4339 7.84711 14.4489 7.63005 14.5079 7.42194C14.5669 7.21383 14.6687 7.01874 14.8075 6.84781C14.9463 6.67688 15.1193 6.53346 15.3167 6.42573C15.5141 6.31801 15.732 6.24809 15.958 6.21997C16.184 6.19185 16.4136 6.20608 16.6338 6.26184C16.854 6.31761 17.0604 6.41382 17.2412 6.54498C17.4221 6.67614 17.5738 6.83968 17.6878 7.02627L18.3932 8.18127ZM8.65333 24.2471C8.65333 24.2471 9.04306 23.9438 9.93083 23.9607C10.5233 23.9724 11.2855 24.3157 12.2192 24.9915L10.5014 27.613C10.2565 27.9868 9.86726 28.2558 9.41616 28.3631C8.96505 28.4703 8.48749 28.4074 8.08462 28.1876C7.89275 28.0829 7.7252 27.9427 7.59203 27.7753C7.45886 27.608 7.3628 27.4169 7.30961 27.2137C7.25642 27.0104 7.24719 26.799 7.28248 26.5923C7.31778 26.3856 7.39686 26.1877 7.51499 26.0106C7.88189 25.4608 8.26113 24.8731 8.65364 24.2471H8.65333Z" fill="white"/>
</g>
</g>
<defs>
<linearGradient id="paint0_linear_65_223" x1="1851.45" y1="0" x2="1851.45" y2="3500" gradientUnits="userSpaceOnUse">
<stop stop-color="#06C4FD"/>
<stop offset="1" stop-color="#1569F4"/>
</linearGradient>
<clipPath id="clip0_65_223">
<rect width="37.029" height="35" fill="white"/>
</clipPath>
</defs>
</svg>
