<svg width="99" height="99" viewBox="0 0 99 99" fill="none" xmlns="http://www.w3.org/2000/svg">
<g filter="url(#filter0_d_110_2)">
<circle cx="47.5" cy="47.5" r="45.5" fill="url(#paint0_linear_110_2)"/>
</g>
<g clip-path="url(#clip0_110_2)">
<path d="M62.5938 19.8738C62.5938 19.3734 62.1884 18.9676 61.6875 18.9676H34.5C33.9991 18.9676 33.5938 19.3734 33.5938 19.8738V25.1426L29.1227 36.7674C29.0828 36.8709 29.0625 36.9816 29.0625 37.0926V75.1551C29.0625 76.1547 29.8759 76.9676 30.875 76.9676H56.7305C56.9323 76.9676 57.12 76.9446 57.4058 76.8875C57.5846 76.8362 57.7633 76.7707 57.9421 76.6818L66.1257 72.5944C66.7418 72.2859 67.1249 71.6629 67.1249 70.9682V32.5613C67.1249 32.538 67.1133 32.5184 67.1116 32.4955C67.1074 32.4388 67.0933 32.3867 67.0786 32.3316C67.0607 32.265 67.0412 32.2024 67.0095 32.1428C66.9991 32.1232 66.9987 32.1002 66.9869 32.0813L62.5938 25.0522V19.8738ZM35.4063 23.4988H60.7812V24.4051H35.4063V23.4988ZM60.7812 20.7801V21.6863H35.4063V20.7801H60.7812ZM35.1226 26.2176H60.3678L56.5337 36.1863H33.5938C33.0928 36.1863 32.6875 36.5921 32.6875 37.0926C32.6875 37.5931 33.0928 37.9988 33.5938 37.9988H56.25V65.1863H52.625C52.1241 65.1863 51.7188 65.5921 51.7188 66.0926C51.7188 66.5931 52.1241 66.9988 52.625 66.9988H56.25V69.7176H30.875V66.9988H49C49.5009 66.9988 49.9062 66.5931 49.9062 66.0926C49.9062 65.5921 49.5009 65.1863 49 65.1863H30.875V37.2608L35.1226 26.2176ZM58.0625 66.6529L65.3147 63.0269L65.3148 65.5313L58.0625 69.1574V66.6529ZM65.3144 61.0001L58.0624 64.6262V37.6529L65.3125 34.0279L65.3144 61.0001ZM30.875 71.5301H56.25V75.1551H30.875V71.5301ZM58.0625 74.5954V71.1841L65.3149 67.5579L65.3151 70.973L58.0625 74.5954ZM58.8409 35.2369L61.8817 27.3314L64.9221 32.1963L58.8409 35.2369Z" fill="#F3F3F3"/>
<path d="M32.6875 56.1238H54.4375C54.9384 56.1238 55.3438 55.7181 55.3438 55.2176V41.6238C55.3438 41.1234 54.9384 40.7176 54.4375 40.7176H32.6875C32.1866 40.7176 31.7812 41.1234 31.7812 41.6238V55.2176C31.7813 55.7181 32.1866 56.1238 32.6875 56.1238ZM33.5938 42.5301H53.5312V54.3113H33.5938V42.5301Z" fill="#F3F3F3"/>
<path d="M38.125 47.0613H49C49.5009 47.0613 49.9062 46.6556 49.9062 46.1551C49.9062 45.6546 49.5009 45.2488 49 45.2488H38.125C37.6241 45.2488 37.2188 45.6546 37.2188 46.1551C37.2188 46.6556 37.6241 47.0613 38.125 47.0613ZM51.7188 49.7801H35.4062C34.9053 49.7801 34.5 50.1859 34.5 50.6863C34.5 51.1868 34.9053 51.5926 35.4062 51.5926H51.7188C52.2197 51.5926 52.625 51.1868 52.625 50.6863C52.625 50.1859 52.2197 49.7801 51.7188 49.7801ZM45.375 35.2801C47.9584 35.2801 49.9062 34.1115 49.9062 32.5613V29.8426C49.9062 28.2924 47.9584 27.1238 45.375 27.1238C42.7916 27.1238 40.8438 28.2924 40.8438 29.8426V32.5613C40.8438 34.1115 42.7916 35.2801 45.375 35.2801ZM45.375 33.4676C43.5307 33.4676 42.6562 32.7406 42.6562 32.5613V32.0363C43.4052 32.3646 44.3336 32.5613 45.375 32.5613C46.4164 32.5613 47.3448 32.3646 48.0938 32.0363V32.5613C48.0938 32.7406 47.2193 33.4676 45.375 33.4676ZM45.375 28.9363C47.2193 28.9363 48.0938 29.6634 48.0938 29.8426C48.0938 30.0218 47.2193 30.7488 45.375 30.7488C43.5307 30.7488 42.6562 30.0218 42.6562 29.8426C42.6562 29.6634 43.5306 28.9363 45.375 28.9363Z" fill="#F3F3F3"/>
</g>
<defs>
<filter id="filter0_d_110_2" x="0" y="0" width="99" height="99" filterUnits="userSpaceOnUse" color-interpolation-filters="sRGB">
<feFlood flood-opacity="0" result="BackgroundImageFix"/>
<feColorMatrix in="SourceAlpha" type="matrix" values="0 0 0 0 0 0 0 0 0 0 0 0 0 0 0 0 0 0 127 0" result="hardAlpha"/>
<feOffset dx="2" dy="2"/>
<feGaussianBlur stdDeviation="2"/>
<feComposite in2="hardAlpha" operator="out"/>
<feColorMatrix type="matrix" values="0 0 0 0 0 0 0 0 0 0 0 0 0 0 0 0 0 0 0.25 0"/>
<feBlend mode="normal" in2="BackgroundImageFix" result="effect1_dropShadow_110_2"/>
<feBlend mode="normal" in="SourceGraphic" in2="effect1_dropShadow_110_2" result="shape"/>
</filter>
<linearGradient id="paint0_linear_110_2" x1="48" y1="93" x2="48" y2="2" gradientUnits="userSpaceOnUse">
<stop stop-color="#F82E2E"/>
<stop offset="1" stop-color="#FE6901"/>
</linearGradient>
<clipPath id="clip0_110_2">
<rect width="58" height="58" fill="white" transform="translate(20 19)"/>
</clipPath>
</defs>
</svg>
