<svg width="32" height="31" viewBox="0 0 32 31" fill="none" xmlns="http://www.w3.org/2000/svg">
<rect x="0.919922" width="31" height="31" rx="2" fill="#D9D9D9"/>
<path d="M30.2149 0H2.62492C2.17273 0 1.73905 0.179634 1.4193 0.499383C1.09956 0.819133 0.919922 1.25281 0.919922 1.705V29.295C0.919922 29.5189 0.964023 29.7406 1.04971 29.9475C1.13539 30.1543 1.26098 30.3423 1.4193 30.5006C1.57763 30.6589 1.76559 30.7845 1.97245 30.8702C2.17931 30.9559 2.40102 31 2.62492 31H17.4739V18.9875H13.4439V14.3375H17.4739V10.85C17.3904 10.0312 17.4871 9.2041 17.7571 8.42663C18.0272 7.64917 18.464 6.9402 19.037 6.34944C19.6101 5.75868 20.3054 5.30044 21.0743 5.00687C21.8432 4.71329 22.667 4.59149 23.4879 4.65C24.6943 4.64258 25.9002 4.70468 27.0994 4.836V9.021H24.6349C22.6819 9.021 22.3099 9.951 22.3099 11.2995V14.291H26.9599L26.3554 18.941H22.3099V31H30.2149C30.4388 31 30.6605 30.9559 30.8674 30.8702C31.0743 30.7845 31.2622 30.6589 31.4205 30.5006C31.5789 30.3423 31.7045 30.1543 31.7901 29.9475C31.8758 29.7406 31.9199 29.5189 31.9199 29.295V1.705C31.9199 1.4811 31.8758 1.25938 31.7901 1.05252C31.7045 0.845665 31.5789 0.657707 31.4205 0.499383C31.2622 0.341059 31.0743 0.21547 30.8674 0.129786C30.6605 0.0441013 30.4388 0 30.2149 0Z" fill="#345BA8"/>
</svg>
