<svg width="99" height="99" viewBox="0 0 99 99" fill="none" xmlns="http://www.w3.org/2000/svg">
<g filter="url(#filter0_d_110_3)">
<circle cx="47.5" cy="47.5" r="45.5" fill="url(#paint0_linear_110_3)"/>
</g>
<path d="M52.4168 23.8333C48.8979 23.8333 45.5136 24.5844 42.3573 26.0666C40.8796 26.763 40.2427 28.5223 40.9373 30.0014C41.6322 31.4836 43.3945 32.1161 44.8737 31.4229C47.2353 30.3132 49.7733 29.75 52.4168 29.75C62.2048 29.75 70.1668 37.712 70.1668 47.5C70.1668 57.2879 62.2048 65.25 52.4168 65.25C50.3238 65.25 48.2769 64.8917 46.3312 64.1868C44.7985 63.6291 43.0984 64.4208 42.5407 65.9549C41.9831 67.4918 42.7762 69.1878 44.3116 69.7455C46.906 70.6901 49.6333 71.1666 52.4168 71.1666C65.4663 71.1666 76.0835 60.5495 76.0835 47.5C76.0835 34.4505 65.4663 23.8333 52.4168 23.8333ZM25.7918 44.5416C24.1582 44.5416 22.8335 45.8649 22.8335 47.5C22.8335 49.135 24.1582 50.4583 25.7918 50.4583H37.6252C39.2588 50.4583 40.5835 49.135 40.5835 47.5C40.5835 45.8649 39.2588 44.5416 37.6252 44.5416H25.7918Z" fill="#F3F3F3"/>
<path d="M43.5417 35.6666C43.5417 34.0316 42.217 32.7083 40.5834 32.7083H31.7084C30.0748 32.7083 28.7501 34.0316 28.7501 35.6666C28.7501 37.3017 30.0748 38.625 31.7084 38.625H40.5834C42.217 38.625 43.5417 37.3017 43.5417 35.6666ZM19.8751 62.2916H40.5834C42.217 62.2916 43.5417 60.9684 43.5417 59.3333C43.5417 57.6982 42.217 56.375 40.5834 56.375H19.8751C18.2415 56.375 16.9167 57.6982 16.9167 59.3333C16.9167 60.9684 18.2415 62.2916 19.8751 62.2916ZM52.4167 38.625C50.7832 38.625 49.4584 39.9482 49.4584 41.5833V47.5C49.4584 48.6209 50.0912 49.6436 51.0935 50.1462L57.0102 53.1045C57.435 53.3155 57.887 53.4166 58.3305 53.4166C59.4168 53.4166 60.4611 52.8188 60.9796 51.7816C61.7107 50.3199 61.1184 48.5431 59.6564 47.8121L55.3751 45.6711V41.5833C55.3751 39.9482 54.0503 38.625 52.4167 38.625Z" fill="#F3F3F3"/>
<defs>
<filter id="filter0_d_110_3" x="0" y="0" width="99" height="99" filterUnits="userSpaceOnUse" color-interpolation-filters="sRGB">
<feFlood flood-opacity="0" result="BackgroundImageFix"/>
<feColorMatrix in="SourceAlpha" type="matrix" values="0 0 0 0 0 0 0 0 0 0 0 0 0 0 0 0 0 0 127 0" result="hardAlpha"/>
<feOffset dx="2" dy="2"/>
<feGaussianBlur stdDeviation="2"/>
<feComposite in2="hardAlpha" operator="out"/>
<feColorMatrix type="matrix" values="0 0 0 0 0 0 0 0 0 0 0 0 0 0 0 0 0 0 0.25 0"/>
<feBlend mode="normal" in2="BackgroundImageFix" result="effect1_dropShadow_110_3"/>
<feBlend mode="normal" in="SourceGraphic" in2="effect1_dropShadow_110_3" result="shape"/>
</filter>
<linearGradient id="paint0_linear_110_3" x1="48" y1="93" x2="48" y2="2" gradientUnits="userSpaceOnUse">
<stop stop-color="#F82E2E"/>
<stop offset="1" stop-color="#FE6901"/>
</linearGradient>
</defs>
</svg>
