<svg width="80" height="80" viewBox="0 0 80 80" fill="none" xmlns="http://www.w3.org/2000/svg">
<circle cx="40" cy="40" r="40" fill="url(#paint0_linear_91_15)"/>
<path d="M38.2961 7.10098C36.1357 7.47105 34.1953 8.2912 32.585 9.49143C31.6748 10.1816 30.0445 11.9219 29.5144 12.772L29.0443 13.5322L27.264 13.5922C25.4436 13.6522 24.8235 13.7522 23.3432 14.2123C19.4125 15.4526 16.3519 18.6832 15.2617 22.7639C15.0417 23.5941 15.0117 23.9242 15.0017 25.4144C14.9917 26.8947 15.0217 27.2248 15.2317 28.0049C15.9118 30.6054 17.4421 32.9459 19.4425 34.4561C20.5427 35.2763 21.0028 35.5363 22.3431 36.0764L23.4933 36.5365L23.5433 42.2276L23.5933 47.9187L23.8233 48.2988C24.3934 49.1989 25.5037 49.599 26.4238 49.2189C26.8939 49.0189 27.204 48.7188 27.474 48.2187C27.6741 47.8487 27.6941 47.6486 27.7241 45.5382L27.7541 43.2678L28.6742 42.7977C29.7044 42.2876 31.9549 41.5175 33.5752 41.1274C35.7956 40.5873 36.5557 40.5173 39.8464 40.5273C42.7469 40.5273 42.967 40.5473 44.2872 40.7973C46.9177 41.3174 49.1981 42.0676 51.1385 43.0678L52.1487 43.5879L52.1587 44.6981C52.1987 47.7287 52.2087 47.9287 52.3687 48.2688C52.6688 48.9489 53.3089 49.429 54.0891 49.529C54.9092 49.649 55.7294 49.1689 56.1794 48.3288C56.3995 47.9287 56.3995 47.8487 56.4495 42.1776L56.4995 36.4465L57.3997 36.1265C59.18 35.4863 60.4102 34.7162 61.6005 33.516C63.1808 31.9157 64.221 30.0353 64.7611 27.8449C65.0711 26.5547 65.0811 24.3242 64.7811 23.004C63.9509 19.4333 61.5605 16.3727 58.2898 14.7124C56.3995 13.7422 54.4491 13.3121 52.2787 13.3722C51.1485 13.4122 51.0585 13.4022 50.9385 13.2121C50.1983 11.9919 48.628 10.2616 47.4978 9.41141C46.2576 8.48124 44.1872 7.57106 42.4469 7.211C41.4067 6.98095 39.2863 6.93094 38.2961 7.10098ZM41.7967 12.712C43.7171 13.2121 45.5074 14.6924 46.3976 16.5328C46.7677 17.2929 46.8977 17.793 46.9977 18.9032C47.0577 19.4833 47.1177 19.6433 47.3478 19.8834C47.5078 20.0334 47.7279 20.1634 47.8479 20.1634C47.9679 20.1634 48.568 19.9134 49.1881 19.6133C50.6784 18.8832 51.3285 18.7232 52.7488 18.7232C55.4093 18.7232 57.3897 19.8834 58.6999 22.2138C59.7301 24.0442 59.7101 26.5847 58.6499 28.385C57.5297 30.2754 55.6994 31.4256 53.649 31.5356C52.5488 31.5856 52.3887 31.6256 52.2987 31.8356C52.2587 31.9357 52.2387 33.646 52.2487 35.6364C52.2587 37.6367 52.2387 39.2671 52.1987 39.2671C52.1687 39.2671 51.5386 39.027 50.8184 38.727C48.2479 37.6768 45.8475 37.0366 43.047 36.6566C41.6067 36.4565 37.676 36.4865 36.2457 36.7066C33.2451 37.1667 30.8647 37.8068 28.7943 38.6969L27.7941 39.137L27.7441 35.4863L27.6941 31.8457L27.454 31.6556C27.274 31.5056 27.0639 31.4656 26.4538 31.4656C24.7835 31.4656 23.4933 30.9255 22.323 29.7453C21.1328 28.555 20.5427 27.1548 20.5427 25.5345C20.5427 23.9542 21.0528 22.7539 22.243 21.5537C23.4833 20.3035 24.9435 19.7334 26.8439 19.7334C28.1942 19.7334 28.9343 19.9234 30.4446 20.6235C31.6248 21.1636 31.6648 21.1836 32.0149 21.0536C32.585 20.8336 32.755 20.5035 32.855 19.4933C32.9751 18.2131 33.1051 17.723 33.5952 16.7128C34.3753 15.0925 35.5756 13.9223 37.1959 13.1521C37.6359 12.9521 38.2461 12.732 38.5461 12.672C38.8462 12.612 39.1862 12.542 39.2963 12.522C39.6563 12.432 41.1866 12.552 41.7967 12.712Z" fill="#F3F3F3"/>
<path d="M35.0254 25.5146C34.4853 25.8146 34.4653 25.9446 34.4353 29.5653C34.3953 32.7759 34.4053 32.936 34.5953 33.266C34.7153 33.4561 34.9654 33.6961 35.1754 33.7961C35.8956 34.1562 36.8257 33.7461 37.0458 32.986C37.1858 32.4659 37.1758 26.8448 37.0358 26.3547C36.8557 25.7546 36.4457 25.4345 35.8255 25.3945C35.4755 25.3745 35.2054 25.4145 35.0254 25.5146Z" fill="#F3F3F3"/>
<path d="M42.9868 25.5547C42.4367 25.8848 42.4167 26.0748 42.4067 29.6555C42.3967 32.616 42.4167 32.9461 42.5767 33.2462C43.0868 34.1863 44.3771 34.1863 44.9472 33.2462C45.1372 32.9361 45.1472 32.7361 45.1472 29.6855C45.1472 26.1448 45.1472 26.1348 44.5471 25.6247C44.157 25.3047 43.4569 25.2647 42.9868 25.5547Z" fill="#F3F3F3"/>
<path d="M18.8924 46.3887C18.5723 46.5587 18.1322 46.9988 17.9822 47.2888C17.5621 48.089 17.6121 49.9193 18.0822 51.2296C19.0924 53.9901 21.943 56.0105 25.3736 56.3806C26.5238 56.5106 28.5942 56.4406 29.7444 56.2305C31.3147 55.9505 33.2151 55.1703 34.5854 54.2501C36.1456 53.1899 37.786 51.6697 38.126 50.9595C38.6461 49.8693 38.226 48.6091 37.1458 48.039C36.6357 47.7689 36.5357 47.7489 35.6756 47.7889C34.8454 47.8289 34.6954 47.8589 33.9252 48.249C33.4751 48.4791 32.3949 49.1792 31.5448 49.8193C28.9643 51.7497 27.464 52.3598 25.6037 52.2398C24.1134 52.1498 23.0232 51.6697 22.193 50.7495C21.5129 49.9993 21.3428 49.5793 21.3428 48.6191C21.3428 48.179 21.3028 47.6589 21.2428 47.4789C21.1328 47.0888 20.7327 46.6187 20.3227 46.4087C20.0026 46.2386 19.1724 46.2286 18.8924 46.3887Z" fill="#F3F3F3"/>
<path d="M42.347 48.0788C40.9767 48.6989 40.5666 50.1892 41.4168 51.4394C42.1469 52.5096 44.3973 54.66 45.6476 55.4902C46.5778 56.1103 48.148 56.8705 49.1882 57.2105C51.3687 57.9307 54.1492 58.1707 55.9495 57.7906C59.3902 57.0705 62.0707 54.7401 62.7008 51.9195C62.9909 50.6293 62.7208 49.6191 61.9507 49.109C61.2405 48.6389 60.1703 48.8189 59.7602 49.4791C59.6902 49.5991 59.5302 50.0492 59.4002 50.4793C59.1101 51.4694 58.7801 52.0296 58.1399 52.6097C56.5096 54.0799 54.1392 54.28 51.7987 53.1298C50.6285 52.5597 49.9284 52.0596 48.4781 50.7493C46.9078 49.339 46.4277 48.959 45.6476 48.5389C44.3873 47.8488 43.2071 47.6887 42.347 48.0788Z" fill="#F3F3F3"/>
<path d="M40.9265 53.77C40.1764 54.2701 39.6263 54.3501 38.9561 54.0701C38.6861 53.95 38.386 53.77 38.286 53.66C38.196 53.56 37.9859 53.4699 37.8259 53.4699C36.4957 53.4699 36.5957 55.5103 37.9759 56.4005C39.0862 57.1206 40.8265 56.9806 41.7767 56.0904C42.6568 55.2603 42.6568 53.8 41.7767 53.4899C41.5166 53.3999 41.4166 53.4399 40.9265 53.77Z" fill="#F3F3F3"/>
<path d="M27.0939 58.9809C25.2336 59.231 23.0332 60.0411 22.5231 60.6612C21.973 61.3114 21.923 62.2115 22.393 62.8317C23.0132 63.6518 23.5033 63.7218 25.1136 63.2417C26.9939 62.6816 28.1241 62.5516 30.0145 62.6816C31.5548 62.7916 32.825 63.0417 34.4853 63.5818C35.8456 64.0119 37.5459 64.742 37.5459 64.892C37.5459 64.9421 37.3959 65.0721 37.2058 65.1821C36.9158 65.3521 36.6557 65.3821 35.5255 65.4121C34.0252 65.4422 33.2951 65.6022 32.1749 66.1323C31.2647 66.5624 30.2945 67.4925 29.8845 68.3327C29.6244 68.8628 29.5944 69.0228 29.5944 69.923C29.5944 70.7832 29.6244 70.9832 29.8245 71.3633C30.6546 72.9136 32.4049 73.6737 34.1353 73.2336C36.1456 72.7135 38.026 70.8732 38.6561 68.7928C38.7661 68.4027 38.8662 68.3127 39.7363 67.7626L40.6965 67.1625L41.2866 67.7926C41.6067 68.1427 42.2268 68.8828 42.6669 69.4429C43.567 70.6131 43.9071 70.9232 44.4272 71.0832C45.1874 71.3033 46.1775 70.7732 46.5576 69.923C46.7877 69.4129 46.7877 69.1929 46.5576 68.5327C46.3476 67.9126 45.9975 67.3825 45.0673 66.2423C44.7173 65.8122 44.4472 65.4422 44.4672 65.4221C44.4772 65.4121 44.7473 65.2521 45.0473 65.0621C46.4076 64.2519 48.728 62.8217 48.9781 62.6516C49.5882 62.2215 49.8282 61.1413 49.4782 60.4012C49.1281 59.6511 48.0479 59.281 47.2377 59.6411C46.9977 59.7511 45.6774 60.5312 44.2972 61.3714C42.9269 62.2115 41.7567 62.9017 41.6967 62.9017C41.6467 62.9017 41.2166 62.6416 40.7465 62.3216C38.6061 60.8713 35.6756 59.7411 32.595 59.161C31.3247 58.9209 28.2341 58.8209 27.0939 58.9809Z" fill="#F3F3F3"/>
<path d="M55.9994 61.5416C55.4793 61.6316 55.3392 61.6916 55.0392 61.9417C54.389 62.4918 54.169 63.522 54.5391 64.2521C54.7691 64.7122 54.9992 64.9222 55.4793 65.1223C56.1194 65.3923 56.9695 65.2523 57.4896 64.7922C57.7797 64.5321 58.0497 63.872 58.0497 63.3819C58.0497 62.3817 56.9495 61.3815 55.9994 61.5416Z" fill="#F3F3F3"/>
<path d="M49.3982 64.9523C48.7081 65.2823 48.348 65.8924 48.348 66.7426C48.348 68.2429 49.9183 69.113 51.1986 68.3229C52.7589 67.3527 52.1787 64.9723 50.3384 64.8122C49.9383 64.7722 49.6983 64.8122 49.3982 64.9523Z" fill="#F3F3F3"/>
<defs>
<linearGradient id="paint0_linear_91_15" x1="40" y1="0" x2="40" y2="80" gradientUnits="userSpaceOnUse">
<stop stop-color="#FF6A00"/>
<stop offset="1" stop-color="#F82E2E"/>
</linearGradient>
</defs>
</svg>
