<svg width="99" height="99" viewBox="0 0 99 99" fill="none" xmlns="http://www.w3.org/2000/svg">
<g filter="url(#filter0_d_65_235)">
<circle cx="47.5" cy="47.5" r="45.5" fill="url(#paint0_linear_65_235)"/>
<path d="M17.5509 66.7718L32.6081 72.9343C32.6187 72.9388 32.6311 72.937 32.6417 72.9414C32.7391 72.9769 32.8401 73 32.9429 73C33.0456 73 33.1466 72.9769 33.244 72.9414C33.2546 72.937 33.267 72.9388 33.2777 72.9343L48 66.9084L62.7223 72.9343C62.733 72.9388 62.7454 72.937 62.756 72.9414C62.8534 72.9769 62.9544 73 63.0571 73C63.1599 73 63.2609 72.9769 63.3583 72.9414C63.3689 72.937 63.3813 72.9388 63.3919 72.9343L78.4491 66.7718C78.612 66.7052 78.7514 66.5915 78.8495 66.4452C78.9477 66.2989 79 66.1266 79 65.9504V48.6993C78.9986 48.6103 78.9836 48.5221 78.9557 48.4376C78.9495 48.4172 78.9407 48.3994 78.9336 48.379C78.9002 48.2911 78.8529 48.209 78.7936 48.136C78.7883 48.1289 78.7848 48.1209 78.7786 48.1138C78.7286 48.0564 78.6715 48.0057 78.6085 47.963C78.5837 47.9461 78.5571 47.9373 78.5315 47.924C78.5208 47.9186 78.5146 47.908 78.5049 47.9027L63.9429 40.751V25.2821C63.9414 25.1931 63.9265 25.1049 63.8986 25.0204C63.8924 25.0009 63.8835 24.9823 63.8764 24.9628C63.843 24.8748 63.7958 24.7927 63.7365 24.7197C63.7312 24.7126 63.7276 24.7037 63.7214 24.6975C63.6715 24.6401 63.6143 24.5894 63.5514 24.5467C63.5275 24.5299 63.5 24.521 63.4752 24.5077C63.4646 24.5024 63.4575 24.4917 63.4469 24.4864L48.3897 17.0908C48.2685 17.0311 48.1351 17 48 17C47.8649 17 47.7315 17.0311 47.6103 17.0908L32.5531 24.4864C32.5425 24.4917 32.5354 24.5015 32.5266 24.5068C32.5 24.521 32.4734 24.5299 32.4486 24.5458C32.3857 24.5885 32.3285 24.6392 32.2786 24.6966C32.2724 24.7037 32.2697 24.7126 32.2635 24.7197C32.2042 24.7927 32.157 24.8748 32.1236 24.9628C32.1165 24.9823 32.1076 25.0009 32.1014 25.0204C32.0735 25.1049 32.0586 25.1931 32.0571 25.2821V40.751L17.496 47.9018C17.4854 47.9071 17.4792 47.9169 17.4694 47.9222C17.4429 47.9364 17.4163 47.9453 17.3915 47.9621C17.3285 48.0048 17.2714 48.0555 17.2214 48.1129C17.2152 48.12 17.2126 48.128 17.2064 48.1351C17.1471 48.2081 17.0998 48.2902 17.0664 48.3782C17.0593 48.3986 17.0505 48.4163 17.0443 48.4367C17.0164 48.5212 17.0014 48.6094 17 48.6984V65.9504C17 66.1266 17.0523 66.2989 17.1505 66.4452C17.2486 66.5915 17.388 66.7052 17.5509 66.7718ZM32.9429 42.291L33.6125 42.6201L45.8389 48.6248L32.9429 53.9029L20.0469 48.6248L32.9429 42.291ZM63.0571 53.9029L50.1611 48.6248L62.3875 42.6201L63.0571 42.2919L75.9531 48.6248L63.0571 53.9029ZM62.1714 40.751L61.9465 40.861L48.8857 47.2746V32.0408L62.1714 26.603V40.751ZM47.1143 47.2737L34.0535 40.861L33.8286 40.751V26.6039L47.1143 32.0417V47.2737ZM18.7714 50.0193L32.0571 55.4571V70.792L18.7714 65.3542V50.0193ZM33.8286 55.4571L47.1143 50.0193V65.3542L33.8286 70.792V55.4571ZM48.8857 50.0193L62.1714 55.4571V70.792L48.8857 65.3542V50.0193ZM77.2286 65.3542L63.9429 70.792V55.4571L77.2286 50.0193V65.3542ZM48 18.8756L60.896 25.2094L48 30.4875L35.104 25.2094L48 18.8756Z" fill="#F3F3F3"/>
</g>
<defs>
<filter id="filter0_d_65_235" x="0" y="0" width="99" height="99" filterUnits="userSpaceOnUse" color-interpolation-filters="sRGB">
<feFlood flood-opacity="0" result="BackgroundImageFix"/>
<feColorMatrix in="SourceAlpha" type="matrix" values="0 0 0 0 0 0 0 0 0 0 0 0 0 0 0 0 0 0 127 0" result="hardAlpha"/>
<feOffset dx="2" dy="2"/>
<feGaussianBlur stdDeviation="2"/>
<feComposite in2="hardAlpha" operator="out"/>
<feColorMatrix type="matrix" values="0 0 0 0 0 0 0 0 0 0 0 0 0 0 0 0 0 0 0.25 0"/>
<feBlend mode="normal" in2="BackgroundImageFix" result="effect1_dropShadow_65_235"/>
<feBlend mode="normal" in="SourceGraphic" in2="effect1_dropShadow_65_235" result="shape"/>
</filter>
<linearGradient id="paint0_linear_65_235" x1="48" y1="93" x2="48" y2="2" gradientUnits="userSpaceOnUse">
<stop stop-color="#F82E2E"/>
<stop offset="1" stop-color="#FE6901"/>
</linearGradient>
</defs>
</svg>
