<svg width="31" height="31" viewBox="0 0 31 31" fill="none" xmlns="http://www.w3.org/2000/svg">
<path d="M10.3336 15.4998C10.3336 14.478 10.6367 13.4791 11.2044 12.6294C11.7721 11.7798 12.5791 11.1176 13.5232 10.7265C14.4673 10.3355 15.5062 10.2332 16.5084 10.4325C17.5107 10.6319 18.4314 11.1239 19.1539 11.8465C19.8765 12.5691 20.3686 13.4897 20.568 14.4919C20.7674 15.4941 20.665 16.533 20.274 17.477C19.8829 18.4211 19.2207 19.228 18.371 19.7957C17.5213 20.3634 16.5224 20.6665 15.5005 20.6665C14.1301 20.6665 12.8159 20.1221 11.847 19.1532C10.878 18.1843 10.3336 16.8701 10.3336 15.4998ZM7.54021 15.4998C7.54021 17.074 8.00699 18.6127 8.88154 19.9215C9.75608 21.2304 10.9991 22.2505 12.4534 22.8529C13.9078 23.4554 15.5081 23.613 17.052 23.306C18.5959 22.999 20.0141 22.241 21.1273 21.128C22.2405 20.0151 22.9986 18.597 23.3058 17.0531C23.613 15.5093 23.4556 13.909 22.8533 12.4547C22.251 11.0004 21.231 9.75727 19.9222 8.88261C18.6134 8.00795 17.0746 7.54101 15.5005 7.54083C14.4552 7.54079 13.4202 7.74663 12.4545 8.14659C11.4888 8.54656 10.6114 9.13281 9.87227 9.87188C9.13317 10.611 8.54689 11.4884 8.14691 12.454C7.74693 13.4197 7.54108 14.4546 7.54112 15.4998M21.9134 7.22536C21.9133 7.59323 22.0222 7.95287 22.2265 8.25881C22.4308 8.56475 22.7212 8.80325 23.0611 8.94413C23.4009 9.08502 23.7749 9.12198 24.1357 9.05033C24.4966 8.97868 24.8281 8.80164 25.0883 8.5416C25.3485 8.28157 25.5257 7.95021 25.5976 7.58943C25.6695 7.22865 25.6328 6.85466 25.4921 6.51475C25.3515 6.17483 25.1132 5.88427 24.8073 5.67979C24.5015 5.47531 24.1419 5.36611 23.774 5.36599C23.2809 5.36623 22.808 5.56218 22.4593 5.91081C22.1105 6.25945 21.9144 6.73224 21.914 7.22536M9.23949 28.1164C8.2565 28.1052 7.28278 27.9249 6.36096 27.5833C5.68772 27.3345 5.07859 26.9384 4.5781 26.4239C4.06284 25.9245 3.66655 25.3156 3.41861 24.6423C3.07651 23.7207 2.89576 22.747 2.8843 21.7639C2.80923 20.13 2.79312 19.6392 2.79312 15.5002C2.79312 11.3611 2.80923 10.8715 2.8843 9.23639C2.89665 8.25355 3.07694 7.28006 3.41739 6.35798C3.66625 5.68476 4.0624 5.07565 4.57689 4.57519C5.0765 4.05966 5.68588 3.66336 6.35974 3.41574C7.28188 3.07382 8.25606 2.89339 9.23949 2.88236C10.8734 2.8073 11.3643 2.79119 15.5005 2.79119C19.6366 2.79119 20.1293 2.8073 21.7645 2.88236C22.7473 2.89471 23.7209 3.07499 24.643 3.41544C25.3165 3.66382 25.9257 4.06002 26.4258 4.57489C26.9407 5.07502 27.3369 5.68422 27.5853 6.35767C27.927 7.27941 28.1074 8.25312 28.1184 9.23609C28.1935 10.8712 28.2096 11.3608 28.2096 15.4998C28.2096 19.6389 28.1947 20.1285 28.1184 21.7636C28.1066 22.7465 27.9263 23.7201 27.5853 24.642C27.3274 25.3105 26.9323 25.9175 26.4255 26.424C25.9188 26.9306 25.3116 27.3254 24.643 27.583C23.7212 27.9247 22.7475 28.105 21.7645 28.1161C20.1305 28.1912 19.6397 28.2073 15.5005 28.2073C11.3612 28.2073 10.8716 28.1927 9.23949 28.1164ZM9.11001 0.0939108C7.82419 0.119348 6.55201 0.362798 5.34766 0.813894C4.31326 1.20311 3.37616 1.81316 2.60164 2.60154C1.81242 3.37531 1.20213 4.31244 0.813622 5.34714C0.362618 6.55158 0.119262 7.82381 0.0939145 9.10966C0.017628 10.7624 0 11.2906 0 15.4998C0 19.7091 0.017628 20.2373 0.0939145 21.89C0.119382 23.1758 0.362841 24.4479 0.813926 25.6522C1.20242 26.687 1.81259 27.6242 2.60164 28.3982C3.37642 29.1861 4.31331 29.7962 5.34735 30.1861C6.55176 30.637 7.82391 30.8805 9.10971 30.9061C10.7634 30.9812 11.2907 31 15.5001 31C19.7096 31 20.2378 30.9824 21.8906 30.9061C23.1764 30.8806 24.4486 30.6372 25.6529 30.1861C26.6829 29.7879 27.6182 29.179 28.399 28.3982C29.1798 27.6174 29.7888 26.6821 30.187 25.6522C30.6387 24.4481 30.8821 23.1759 30.907 21.89C30.9821 20.2361 30.9982 19.7091 30.9982 15.4998C30.9982 11.2906 30.9805 10.7624 30.907 9.10966C30.8816 7.82388 30.6381 6.55175 30.187 5.34745C29.7972 4.31338 29.1872 3.37643 28.3993 2.60154C27.6256 1.81278 26.6889 1.20257 25.6548 0.81359C24.4504 0.362263 23.178 0.118905 21.8921 0.0939108C20.2396 0.018843 19.7111 0 15.5005 0C11.2898 0 10.7622 0.0176273 9.1088 0.0939108" fill="url(#paint0_radial_65_201)"/>
<defs>
<radialGradient id="paint0_radial_65_201" cx="0" cy="0" r="1" gradientUnits="userSpaceOnUse" gradientTransform="translate(4.11856 31.1462) scale(40.4674 40.4658)">
<stop offset="0.09" stop-color="#FBBC05"/>
<stop offset="0.78" stop-color="#EA4335"/>
</radialGradient>
</defs>
</svg>
