<svg width="37" height="49" viewBox="0 0 37 49" fill="none" xmlns="http://www.w3.org/2000/svg">
<path d="M17.2025 0.0744514C15.6072 0.347721 14.1743 0.953346 12.9853 1.83963C12.3132 2.34924 11.1093 3.63435 10.7178 4.26213L10.3707 4.82344L9.05607 4.86776C7.71188 4.91207 7.25397 4.98593 6.16088 5.32567C3.25831 6.24149 0.998296 8.62707 0.193257 11.6404C0.0307724 12.2534 0.00861538 12.4972 0.0012297 13.5976C-0.00615598 14.6907 0.0160011 14.9344 0.1711 15.5105C0.673326 17.4308 1.80334 19.159 3.28047 20.2743C4.0929 20.8799 4.43264 21.0719 5.42232 21.4708L6.27167 21.8105L6.3086 26.0129L6.34553 30.2154L6.5154 30.4961C6.93638 31.1608 7.75619 31.4562 8.43567 31.1755C8.7828 31.0278 9.01176 30.8063 9.21117 30.437C9.35888 30.1637 9.37365 30.016 9.39581 28.4576L9.41797 26.7811L10.0975 26.4339C10.8582 26.0573 12.52 25.4886 13.7164 25.2005C15.3561 24.8017 15.9174 24.75 18.3473 24.7574C20.4891 24.7574 20.6516 24.7722 21.6265 24.9568C23.5689 25.3409 25.2529 25.8948 26.6857 26.6333L27.4316 27.0174L27.439 27.8372C27.4686 30.0751 27.476 30.2228 27.5941 30.4739C27.8157 30.9761 28.2884 31.3306 28.8645 31.4045C29.4701 31.4931 30.0757 31.1386 30.4081 30.5182C30.5705 30.2228 30.5705 30.1637 30.6075 25.976L30.6444 21.744L31.3091 21.5077C32.6238 21.035 33.5322 20.4663 34.4111 19.58C35.578 18.3983 36.3461 17.0098 36.745 15.3923C36.9739 14.4396 36.9813 12.7926 36.7597 11.8177C36.1467 9.18099 34.3816 6.92097 31.9664 5.69495C30.5705 4.97854 29.1303 4.66096 27.5277 4.70527C26.6931 4.73481 26.6266 4.72743 26.538 4.5871C25.9914 3.68605 24.8319 2.40833 23.9973 1.78054C23.0815 1.09368 21.5526 0.421577 20.2675 0.155693C19.4994 -0.0141773 17.9337 -0.0511055 17.2025 0.0744514ZM19.7875 4.21782C21.2055 4.5871 22.5275 5.68018 23.1849 7.03914C23.4581 7.60046 23.5542 7.96974 23.628 8.78955C23.6723 9.21792 23.7166 9.33609 23.8865 9.51335C24.0047 9.62413 24.1672 9.72014 24.2558 9.72014C24.3444 9.72014 24.7876 9.5355 25.2455 9.31393C26.3459 8.77478 26.826 8.65661 27.8748 8.65661C29.8394 8.65661 31.3017 9.51335 32.2693 11.2342C33.03 12.5858 33.0152 14.4618 32.2323 15.7912C31.4051 17.1871 30.0536 18.0364 28.5395 18.1177C27.7271 18.1546 27.6089 18.1841 27.5424 18.3392C27.5129 18.4131 27.4981 19.676 27.5055 21.1458C27.5129 22.6229 27.4981 23.8268 27.4686 23.8268C27.4464 23.8268 26.9811 23.6495 26.4493 23.428C24.5512 22.6525 22.7787 22.1798 20.7107 21.8991C19.6471 21.7514 16.7446 21.7736 15.6884 21.9361C13.4727 22.2758 11.7149 22.7485 10.1861 23.4058L9.44751 23.7308L9.41058 21.035L9.37365 18.3466L9.1964 18.2063C9.06346 18.0955 8.90836 18.066 8.45783 18.066C7.22442 18.066 6.27167 17.6671 5.40755 16.7956C4.52865 15.9167 4.0929 14.8827 4.0929 13.6863C4.0929 12.5193 4.46956 11.633 5.34846 10.7468C6.26428 9.82355 7.34259 9.40256 8.74587 9.40256C9.74294 9.40256 10.2895 9.54289 11.4047 10.0599C12.2762 10.4587 12.3058 10.4735 12.5643 10.3775C12.9853 10.215 13.1108 9.97126 13.1847 9.22531C13.2733 8.27994 13.3693 7.91804 13.7312 7.17209C14.3073 5.97561 15.1936 5.11148 16.39 4.54279C16.715 4.39507 17.1655 4.23259 17.3871 4.18827C17.6087 4.14396 17.8598 4.09226 17.941 4.07749C18.2069 4.01102 19.3369 4.09965 19.7875 4.21782Z" fill="black"/>
<path d="M14.7873 13.6714C14.3885 13.893 14.3737 13.989 14.3516 16.6626C14.322 19.0334 14.3294 19.1516 14.4697 19.3953C14.5584 19.5357 14.743 19.7129 14.8981 19.7868C15.4299 20.0527 16.1167 19.7498 16.2792 19.1885C16.3826 18.8045 16.3752 14.6537 16.2718 14.2918C16.1389 13.8487 15.8361 13.6123 15.3782 13.5828C15.1197 13.568 14.9203 13.5976 14.7873 13.6714Z" fill="black"/>
<path d="M20.6663 13.7011C20.2601 13.9448 20.2453 14.0851 20.2379 16.7292C20.2305 18.9154 20.2453 19.1591 20.3635 19.3807C20.7401 20.0749 21.6929 20.0749 22.1139 19.3807C22.2542 19.1517 22.2616 19.004 22.2616 16.7514C22.2616 14.1368 22.2616 14.1295 21.8184 13.7528C21.5304 13.5164 21.0134 13.4869 20.6663 13.7011Z" fill="black"/>
<path d="M2.87426 29.0855C2.63792 29.211 2.31295 29.536 2.20216 29.7502C1.89196 30.341 1.92889 31.6926 2.27602 32.6601C3.02197 34.6986 5.12689 36.1905 7.66018 36.4638C8.50953 36.5598 10.0384 36.5081 10.8877 36.353C12.0473 36.1462 13.4505 35.5701 14.4624 34.8906C15.6146 34.1077 16.8258 32.9851 17.0769 32.4607C17.461 31.6557 17.1508 30.7251 16.3531 30.3041C15.9764 30.1047 15.9026 30.0899 15.2674 30.1195C14.6544 30.149 14.5436 30.1712 13.9749 30.4592C13.6426 30.6291 12.8449 31.1461 12.2171 31.6188C10.3116 33.0442 9.20378 33.4947 7.83005 33.4061C6.72958 33.3396 5.92454 32.9851 5.31153 32.3056C4.8093 31.7517 4.68375 31.4415 4.68375 30.7325C4.68375 30.4075 4.65421 30.0234 4.60989 29.8905C4.52865 29.6025 4.23322 29.2553 3.93041 29.1002C3.69407 28.9747 3.08106 28.9673 2.87426 29.0855Z" fill="black"/>
<path d="M20.1937 30.3336C19.1819 30.7915 18.8791 31.8919 19.5069 32.8151C20.046 33.6054 21.7078 35.1933 22.631 35.8063C23.3179 36.2643 24.4774 36.8256 25.2455 37.0767C26.8556 37.6085 28.9088 37.7857 30.2383 37.5051C32.7789 36.9733 34.7583 35.2524 35.2236 33.1697C35.4378 32.2169 35.2384 31.471 34.6697 31.0943C34.1453 30.7472 33.355 30.8801 33.0522 31.3676C33.0005 31.4562 32.8823 31.7885 32.7863 32.1061C32.5721 32.8373 32.3284 33.2509 31.8557 33.6793C30.6519 34.765 28.9014 34.9127 27.1732 34.0633C26.3091 33.6423 25.7921 33.2731 24.7212 32.3055C23.5616 31.2642 23.2071 30.9835 22.631 30.6733C21.7004 30.1637 20.8289 30.0455 20.1937 30.3336Z" fill="black"/>
<path d="M19.1449 34.5361C18.591 34.9053 18.1848 34.9644 17.6899 34.7576C17.4905 34.669 17.2689 34.5361 17.1951 34.4548C17.1286 34.381 16.9735 34.3145 16.8553 34.3145C15.873 34.3145 15.9469 35.8212 16.9661 36.4785C17.7859 37.0103 19.071 36.9069 19.7727 36.2495C20.4226 35.6365 20.4226 34.5582 19.7727 34.3293C19.5807 34.2628 19.5068 34.2923 19.1449 34.5361Z" fill="black"/>
<path d="M8.9305 38.384C7.55676 38.5686 5.93191 39.1668 5.55524 39.6248C5.14903 40.1048 5.1121 40.7695 5.45923 41.2274C5.91714 41.8331 6.27904 41.8848 7.46813 41.5303C8.85664 41.1167 9.69122 41.0206 11.0871 41.1167C12.2245 41.1979 13.1625 41.3825 14.3885 41.7814C15.393 42.099 16.6485 42.6381 16.6485 42.7489C16.6485 42.7858 16.5377 42.8818 16.3974 42.9631C16.1832 43.0886 15.9912 43.1108 15.1566 43.133C14.0488 43.1551 13.5096 43.2733 12.6824 43.6647C12.0103 43.9823 11.2939 44.6692 10.9911 45.2896C10.7991 45.681 10.7769 45.7992 10.7769 46.4639C10.7769 47.0991 10.7991 47.2468 10.9468 47.5274C11.5598 48.6722 12.8523 49.2335 14.13 48.9086C15.6145 48.5245 17.003 47.1655 17.4683 45.6293C17.5496 45.3413 17.6234 45.2748 18.266 44.8686L18.975 44.4254L19.4108 44.8907C19.6471 45.1492 20.105 45.6958 20.43 46.1094C21.0947 46.9735 21.3458 47.2025 21.7299 47.3206C22.2912 47.4831 23.0224 47.0917 23.303 46.4639C23.4729 46.0872 23.4729 45.9247 23.303 45.4373C23.1479 44.9794 22.8894 44.5879 22.2026 43.746C21.9441 43.4284 21.7446 43.1551 21.7594 43.1403C21.7668 43.133 21.9662 43.0148 22.1878 42.8745C23.1922 42.2762 24.9057 41.2201 25.0904 41.0945C25.5409 40.7769 25.7181 39.9793 25.4596 39.4327C25.2011 38.8788 24.4035 38.6055 23.8053 38.8714C23.628 38.9527 22.6531 39.5287 21.6339 40.1491C20.622 40.7695 19.7579 41.2791 19.7136 41.2791C19.6767 41.2791 19.3591 41.0871 19.0119 40.8508C17.4314 39.7799 15.2674 38.9453 12.9926 38.5169C12.0546 38.3396 9.77246 38.2658 8.9305 38.384Z" fill="black"/>
<path d="M30.2751 40.2748C29.891 40.3413 29.7876 40.3856 29.566 40.5702C29.086 40.9765 28.9235 41.7372 29.1968 42.2763C29.3666 42.6161 29.5365 42.7712 29.891 42.9189C30.3637 43.1183 30.9915 43.0149 31.3755 42.6752C31.5897 42.4831 31.7891 41.9957 31.7891 41.6338C31.7891 40.8952 30.9767 40.1567 30.2751 40.2748Z" fill="black"/>
<path d="M25.4006 42.7934C24.891 43.0371 24.6251 43.4876 24.6251 44.1154C24.6251 45.2233 25.7847 45.8658 26.73 45.2824C27.8822 44.5659 27.4538 42.8082 26.0949 42.69C25.7994 42.6604 25.6222 42.69 25.4006 42.7934Z" fill="black"/>
</svg>
