<svg width="31" height="31" viewBox="0 0 31 31" fill="none" xmlns="http://www.w3.org/2000/svg">
<mask id="mask0_118_10" style="mask-type:luminance" maskUnits="userSpaceOnUse" x="0" y="0" width="31" height="31">
<path d="M31 0H0V31H31V0Z" fill="white"/>
</mask>
<g mask="url(#mask0_118_10)">
<path d="M27.3672 0H3.63281C1.62647 0 0 1.62647 0 3.63281V27.3672C0 29.3735 1.62647 31 3.63281 31H27.3672C29.3735 31 31 29.3735 31 27.3672V3.63281C31 1.62647 29.3735 0 27.3672 0Z" fill="white"/>
<path d="M21.5489 6.05469H24.7535L17.7523 14.0566L25.9887 24.9453H19.5397L14.4886 18.3413L8.70906 24.9453H5.50253L12.9909 16.3864L5.08984 6.05469H11.7025L16.2682 12.091L21.5489 6.05469ZM20.4242 23.0272H22.1999L10.7376 7.87206H8.83209L20.4242 23.0272Z" fill="black"/>
</g>
</svg>
